<svg width="1294" height="651" viewBox="0 0 1294 651" fill="none" xmlns="http://www.w3.org/2000/svg">
<path d="M1272.28 0.0855469H971.712C968.674 0.0855469 965.637 0.058548 962.6 0.0855469C957.278 -0.0870347 952.074 1.6722 947.949 5.03823C943.823 8.40426 941.056 13.1496 940.157 18.3976C939.724 22.6444 939.611 26.9178 939.819 31.1815V584.528C939.819 599.235 939.384 614.017 939.819 628.718C939.847 634.498 942.133 640.039 946.19 644.156C950.248 648.273 955.754 650.641 961.533 650.753C963.308 650.817 965.097 650.753 966.872 650.753H1245.71C1254.26 650.753 1262.81 650.84 1271.36 650.753C1277.04 650.877 1282.55 648.816 1286.75 644.994C1290.95 641.172 1293.53 635.881 1293.94 630.217C1294.01 629.015 1293.98 627.81 1293.98 626.605V26.1969C1293.98 24.8469 1294.02 23.497 1293.98 22.147C1293.96 16.365 1291.67 10.822 1287.62 6.70051C1283.56 2.57899 1278.06 0.205215 1272.28 0.0855469C1261.86 -0.35656 1261.88 15.8428 1272.28 16.2849C1278.99 16.5718 1277.79 24.0471 1277.79 28.7145V626.609C1277.89 627.811 1277.87 629.02 1277.74 630.22C1276.87 634.216 1273.25 634.557 1269.98 634.557H965.948C964.067 634.719 962.175 634.685 960.302 634.455C956.927 633.689 956.042 630.723 956.022 627.756C955.985 622.316 956.022 616.872 956.022 611.432V31.0668C955.69 27.5541 955.739 24.0156 956.171 20.5136C957.703 14.0609 970.446 16.2849 975.208 16.2849H1272.28C1282.7 16.2849 1282.72 0.0855469 1272.28 0.0855469Z" fill="#00810F"/>
<path d="M1217.26 70.6674H1016.54C1014.4 70.6979 1012.36 71.5611 1010.85 73.0735C1009.34 74.5859 1008.47 76.6284 1008.44 78.7671V150.216C1008.47 152.355 1009.34 154.397 1010.85 155.91C1012.36 157.422 1014.4 158.285 1016.54 158.316H1217.26C1219.4 158.286 1221.45 157.423 1222.96 155.911C1224.47 154.398 1225.33 152.355 1225.36 150.216V78.7671C1225.36 68.3455 1209.16 68.3286 1209.16 78.7671V150.216L1217.26 142.117H1016.54L1024.64 150.216V78.7671L1016.54 86.8668H1217.26C1227.69 86.8668 1227.71 70.6674 1217.26 70.6674Z" fill="#00810F"/>
<path d="M1230.91 333.255H1002.9C992.477 333.255 992.46 349.455 1002.9 349.455H1230.91C1241.33 349.455 1241.35 333.255 1230.91 333.255Z" fill="#00810F"/>
<path d="M1230.91 391.593H1002.9C992.477 391.593 992.46 407.793 1002.9 407.793H1230.91C1241.33 407.793 1241.35 391.593 1230.91 391.593Z" fill="#00810F"/>
<path d="M1230.91 449.931H1002.9C992.477 449.931 992.46 466.131 1002.9 466.131H1230.91C1241.33 466.131 1241.35 449.931 1230.91 449.931Z" fill="#00810F"/>
<path d="M1116.9 509.383C1109.05 509.363 1101.4 511.843 1095.05 516.465C1088.7 521.087 1083.99 527.61 1081.6 535.089C1079.35 542.282 1079.29 549.981 1081.42 557.21C1083.55 564.438 1087.79 570.87 1093.58 575.689C1099.68 580.226 1106.95 582.911 1114.53 583.42C1122.12 583.93 1129.68 582.242 1136.33 578.561C1149.92 570.799 1155.54 554.768 1153.28 539.8C1151.79 531.248 1147.32 523.499 1140.66 517.931C1134 512.362 1125.58 509.333 1116.9 509.383C1115.84 509.383 1114.79 509.592 1113.8 509.999C1112.82 510.406 1111.93 511.003 1111.17 511.755C1110.42 512.507 1109.83 513.4 1109.42 514.383C1109.01 515.366 1108.8 516.419 1108.8 517.482C1108.8 518.546 1109.01 519.599 1109.42 520.582C1109.83 521.565 1110.42 522.458 1111.17 523.21C1111.93 523.962 1112.82 524.559 1113.8 524.966C1114.79 525.373 1115.84 525.582 1116.9 525.582C1117.74 525.582 1118.59 525.65 1119.41 525.68C1121.88 525.771 1118.12 525.299 1120.48 525.812C1121.76 526.07 1123.03 526.394 1124.28 526.784C1124.77 526.943 1125.25 527.115 1125.73 527.3C1124.17 526.692 1126.4 527.661 1126.55 527.729C1127.87 528.407 1129.13 529.197 1130.32 530.091C1128.97 529.058 1130.81 530.587 1130.93 530.698C1131.29 531.036 1131.64 531.373 1131.98 531.711C1132.49 532.234 1132.97 532.781 1133.44 533.338C1132.48 532.21 1133.5 533.402 1133.71 533.729C1134.45 534.86 1135.08 536.021 1135.74 537.192C1135.87 537.428 1136.38 538.606 1135.82 537.266C1136.2 538.181 1136.52 539.116 1136.79 540.067C1137.14 541.268 1137.41 542.491 1137.59 543.729C1137.36 542.163 1137.59 543.833 1137.59 544.232C1137.59 544.876 1137.65 545.517 1137.65 546.162C1137.65 547.475 1137.58 548.788 1137.45 550.094C1137.63 548.319 1137.32 550.738 1137.28 550.937C1137.11 551.778 1136.91 552.625 1136.68 553.438C1136.51 554.019 1136.34 554.589 1136.14 555.159C1136.04 555.413 1135.08 557.475 1135.89 555.834C1135.39 556.875 1134.84 557.889 1134.24 558.872C1133.93 559.351 1133.61 559.821 1133.28 560.282C1132.52 561.325 1134.56 558.993 1133.06 560.495C1132.1 561.464 1131.19 562.426 1130.16 563.32C1131.44 562.216 1128.99 564.083 1128.45 564.4C1127.85 564.737 1127.23 565.048 1126.61 565.382C1124.69 566.442 1127.54 565.078 1126.28 565.547C1125.03 566.016 1123.75 566.405 1122.46 566.712C1121.97 566.826 1121.48 566.907 1120.99 567.015C1120.03 567.171 1119.99 567.184 1120.87 567.059C1120.35 567.12 1119.83 567.164 1119.3 567.198C1117.97 567.288 1116.64 567.303 1115.31 567.241C1114.53 567.208 1113.75 567.15 1112.98 567.056C1113.36 567.103 1114.4 567.363 1112.89 567.005C1111.57 566.691 1110.26 566.418 1108.97 565.993C1108.4 565.804 1107.83 565.605 1107.28 565.375C1108.91 566.05 1106.65 564.997 1106.34 564.828C1105.21 564.223 1104.14 563.531 1103.12 562.76C1104.44 563.772 1102 561.656 1101.65 561.288C1101.29 560.92 1100.87 560.441 1100.49 560.009C1099.62 559.02 1101.46 561.562 1100.27 559.722C1099.49 558.531 1098.81 557.323 1098.12 556.084C1097.03 554.133 1098.51 557.512 1097.78 555.369C1097.62 554.903 1097.44 554.447 1097.3 553.978C1096.85 552.535 1096.51 551.062 1096.26 549.571C1096.33 549.942 1096.36 551.029 1096.26 549.395C1096.21 548.592 1096.15 547.792 1096.13 546.986C1096.13 546.327 1096.13 545.669 1096.13 545.011C1096.13 544.674 1096.42 542.028 1096.16 543.759C1096.38 542.281 1096.72 540.823 1097.18 539.399C1097.4 538.697 1097.64 537.995 1097.92 537.313C1097.38 538.623 1098.14 536.976 1098.34 536.588C1099.01 535.289 1099.79 534.047 1100.67 532.875C1099.62 534.245 1101.14 532.399 1101.26 532.271C1101.75 531.736 1102.27 531.219 1102.81 530.722C1102.92 530.611 1104.77 529.068 1103.42 530.108C1104.01 529.66 1104.62 529.242 1105.25 528.856C1105.88 528.457 1106.53 528.085 1107.19 527.739C1107.5 527.577 1109.3 526.794 1108.01 527.303C1109.46 526.729 1110.96 526.278 1112.48 525.953C1112.59 525.93 1115.15 525.559 1113.52 525.737C1114.63 525.616 1115.74 525.579 1116.86 525.562C1119.01 525.562 1121.07 524.709 1122.59 523.19C1124.1 521.671 1124.96 519.61 1124.96 517.462C1124.96 515.314 1124.1 513.254 1122.59 511.735C1121.07 510.216 1119.01 509.363 1116.86 509.363L1116.9 509.383Z" fill="#00810F"/>
<path d="M253.355 650.756H517.87C530.101 650.756 542.443 651.245 554.656 650.756C554.828 650.756 554.994 650.756 555.179 650.756C565.601 650.756 565.618 634.557 555.179 634.557H290.671C278.444 634.557 266.099 634.064 253.885 634.557C253.713 634.557 253.548 634.557 253.365 634.557C242.94 634.557 242.923 650.756 253.365 650.756H253.355Z" fill="#00810F"/>
<path d="M319.391 640.55V539.905C319.391 529.484 303.192 529.467 303.192 539.905V640.55C303.192 650.975 319.391 650.992 319.391 640.55Z" fill="#00810F"/>
<path d="M489.154 539.905V640.55C489.154 650.972 505.353 650.989 505.353 640.55V539.905C505.353 529.484 489.154 529.467 489.154 539.905Z" fill="#00810F"/>
<path d="M786.57 0.0854966H38.9163C33.3073 0.0854966 27.6578 -0.106871 22.042 0.0854966C19.0926 0.140355 16.1829 0.776137 13.4794 1.95648C10.7759 3.13682 8.33163 4.83856 6.28638 6.96436C4.24114 9.09017 2.63504 11.5983 1.55997 14.3454C0.484894 17.0924 -0.038066 20.0245 0.0209992 22.9738C-0.00937462 26.3487 0.0209992 29.7236 0.0209992 33.0984V492.353C0.0209992 503.021 -0.0262489 513.689 0.0209992 524.357C-0.0994273 527.344 0.37527 530.325 1.41748 533.127C2.45969 535.928 4.0486 538.495 6.09179 540.677C8.13498 542.859 10.5917 544.613 13.3189 545.837C16.0462 547.06 18.9896 547.73 21.9779 547.806C23.3481 547.853 24.725 547.806 26.0952 547.806H781.957C783.482 547.806 785.014 547.856 786.536 547.806C789.497 547.744 792.417 547.098 795.127 545.904C797.837 544.71 800.285 542.992 802.329 540.849C804.373 538.706 805.973 536.18 807.037 533.416C808.101 530.653 808.609 527.706 808.53 524.745C808.618 514.54 808.53 504.327 808.53 494.122V34.067C808.53 30.5538 808.53 27.0439 808.53 23.5341C808.649 20.5493 808.174 17.5707 807.132 14.7711C806.091 11.9715 804.503 9.40665 802.463 7.2253C800.422 5.04395 797.968 3.28956 795.244 2.06392C792.52 0.838287 789.58 0.165806 786.594 0.0854966C776.169 -0.332987 776.189 15.8664 786.594 16.2848C792.065 16.5076 792.331 21.1278 792.331 25.2552V497.324C792.331 506.632 792.453 515.947 792.331 525.255C792.233 532.889 784.387 531.606 779.048 531.606H25.4945C23.9287 531.724 22.3551 531.686 20.7967 531.495C15.9807 530.452 16.2203 526.095 16.2203 522.329V31.1511C16.2203 25.3869 14.5937 16.3726 22.8013 16.3017C29.8109 16.2275 36.8273 16.3017 43.8402 16.3017H786.57C796.995 16.2848 797.012 0.0854966 786.57 0.0854966Z" fill="#00810F"/>
<path d="M8.10044 474.669H800.417C810.842 474.669 810.859 458.47 800.417 458.47H8.10044C-2.32452 458.47 -2.34139 474.669 8.10044 474.669Z" fill="#00810F"/>
</svg>
