<svg width="1828" height="920" viewBox="0 0 1828 920" fill="none" xmlns="http://www.w3.org/2000/svg">
<path d="M702.455 787.273V762.634H439.762V908.074H702.455V787.273Z" fill="white"/>
<path d="M1797.32 11.7688H1358.33C1347.71 11.7688 1339.1 20.3752 1339.1 30.9917V888.841C1339.1 899.458 1347.71 908.064 1358.33 908.064H1797.32C1807.93 908.064 1816.54 899.458 1816.54 888.841V30.9917C1816.54 20.3752 1807.93 11.7688 1797.32 11.7688Z" fill="white"/>
<path d="M1719.59 111.478H1436.04V212.412H1719.59V111.478Z" fill="#5EB66B"/>
<path d="M1577.82 731.24C1572.45 731.134 1567.13 732.107 1562.15 734.103C1557.17 736.099 1552.65 739.077 1548.84 742.858C1545.04 746.639 1542.03 751.147 1540.01 756.113C1537.98 761.079 1536.98 766.401 1537.05 771.764C1536.78 777.214 1537.64 782.663 1539.58 787.762C1541.53 792.861 1544.51 797.5 1548.35 801.383C1552.18 805.265 1556.78 808.307 1561.86 810.315C1566.93 812.322 1572.37 813.251 1577.82 813.042C1602.48 813.042 1618.58 796.05 1618.58 771.764C1618.66 766.4 1617.66 761.074 1615.64 756.105C1613.62 751.137 1610.61 746.626 1606.81 742.844C1603 739.062 1598.47 736.085 1593.49 734.091C1588.51 732.097 1583.18 731.128 1577.82 731.24Z" fill="white"/>
<path d="M1797.31 0.326644H1372.71C1368.42 0.326644 1364.13 0.288503 1359.84 0.326644C1352.32 0.0828424 1344.97 2.56807 1339.14 7.32317C1333.31 12.0783 1329.4 18.7819 1328.13 26.1955C1327.52 32.1949 1327.36 38.2318 1327.66 44.2551V825.952C1327.66 846.729 1327.04 867.612 1327.66 888.379C1327.7 896.545 1330.93 904.372 1336.66 910.188C1342.39 916.004 1350.17 919.349 1358.33 919.507C1360.84 919.597 1363.37 919.507 1365.87 919.507H1759.79C1771.86 919.507 1783.94 919.63 1796.02 919.507C1804.04 919.683 1811.82 916.77 1817.76 911.371C1823.69 905.972 1827.33 898.498 1827.91 890.496C1828.02 888.799 1827.98 887.097 1827.98 885.395V37.2134C1827.98 35.3064 1828.03 33.3993 1827.98 31.4923C1827.94 23.3242 1824.71 15.4938 1818.98 9.67142C1813.26 3.84907 1805.48 0.495695 1797.31 0.326644C1782.59 -0.297909 1782.62 22.5865 1797.31 23.211C1806.79 23.6163 1805.09 34.1765 1805.09 40.77V885.399C1805.23 887.098 1805.21 888.806 1805.03 890.501C1803.8 896.145 1798.68 896.627 1794.06 896.627H1364.57C1361.91 896.856 1359.24 896.808 1356.59 896.484C1351.82 895.402 1350.57 891.211 1350.55 887.02C1350.49 879.335 1350.55 871.645 1350.55 863.959V44.093C1350.08 39.1307 1350.15 34.132 1350.76 29.1848C1352.92 20.0692 1370.92 23.211 1377.65 23.211H1797.31C1812.04 23.211 1812.06 0.326644 1797.31 0.326644Z" fill="#095214"/>
<path d="M1719.59 100.036H1436.04C1433.02 100.079 1430.14 101.298 1428 103.435C1425.86 105.571 1424.64 108.457 1424.6 111.478V212.412C1424.64 215.434 1425.86 218.319 1428 220.456C1430.14 222.592 1433.02 223.811 1436.04 223.855H1719.59C1722.62 223.813 1725.5 222.594 1727.64 220.457C1729.78 218.32 1730.99 215.434 1731.04 212.412V111.478C1731.04 96.7557 1708.15 96.7318 1708.15 111.478V212.412L1719.59 200.97H1436.04L1447.48 212.412V111.478L1436.04 122.92H1719.59C1734.32 122.92 1734.35 100.036 1719.59 100.036Z" fill="#095214"/>
<path d="M1738.87 470.987H1416.77C1402.05 470.987 1402.02 493.871 1416.77 493.871H1738.87C1753.6 493.871 1753.62 470.987 1738.87 470.987Z" fill="#095214"/>
<path d="M1738.87 553.399H1416.77C1402.05 553.399 1402.02 576.284 1416.77 576.284H1738.87C1753.6 576.284 1753.62 553.399 1738.87 553.399Z" fill="#095214"/>
<path d="M1738.87 635.812H1416.77C1402.05 635.812 1402.02 658.696 1416.77 658.696H1738.87C1753.6 658.696 1753.62 635.812 1738.87 635.812Z" fill="#095214"/>
<path d="M1577.82 719.797C1566.72 719.769 1555.91 723.273 1546.95 729.803C1537.98 736.332 1531.33 745.547 1527.95 756.112C1524.77 766.273 1524.68 777.15 1527.69 787.361C1530.71 797.572 1536.69 806.658 1544.87 813.466C1553.48 819.876 1563.76 823.668 1574.47 824.388C1585.18 825.108 1595.87 822.724 1605.26 817.523C1624.46 806.558 1632.4 783.912 1629.2 762.768C1627.1 750.686 1620.79 739.74 1611.38 731.873C1601.97 724.006 1590.08 719.728 1577.82 719.797C1576.31 719.797 1574.83 720.093 1573.44 720.668C1572.05 721.243 1570.79 722.086 1569.73 723.149C1568.66 724.211 1567.82 725.473 1567.25 726.861C1566.67 728.249 1566.37 729.737 1566.37 731.24C1566.37 732.742 1566.67 734.23 1567.25 735.618C1567.82 737.006 1568.66 738.268 1569.73 739.33C1570.79 740.393 1572.05 741.236 1573.44 741.811C1574.83 742.386 1576.31 742.682 1577.82 742.682C1579 742.682 1580.2 742.777 1581.36 742.82C1584.85 742.949 1579.53 742.281 1582.87 743.006C1584.68 743.37 1586.47 743.829 1588.24 744.379C1588.92 744.605 1589.61 744.848 1590.28 745.108C1588.09 744.25 1591.24 745.619 1591.44 745.714C1593.31 746.672 1595.09 747.788 1596.77 749.051C1594.86 747.592 1597.47 749.752 1597.64 749.909C1598.15 750.386 1598.64 750.863 1599.12 751.34C1599.84 752.079 1600.51 752.851 1601.18 753.638C1599.82 752.045 1601.26 753.728 1601.56 754.191C1602.61 755.788 1603.5 757.428 1604.42 759.082C1604.62 759.416 1605.33 761.08 1604.55 759.187C1605.07 760.48 1605.53 761.801 1605.91 763.144C1606.41 764.84 1606.79 766.568 1607.05 768.317C1606.72 766.105 1607.05 768.465 1607.05 769.027C1607.05 769.938 1607.13 770.844 1607.13 771.754C1607.13 773.61 1607.03 775.463 1606.84 777.309C1607.09 774.801 1606.67 778.219 1606.61 778.5C1606.37 779.688 1606.09 780.884 1605.75 782.033C1605.52 782.853 1605.28 783.659 1604.99 784.465C1604.86 784.822 1603.49 787.735 1604.63 785.418C1603.93 786.889 1603.16 788.321 1602.3 789.709C1601.87 790.386 1601.42 791.05 1600.95 791.702C1599.89 793.175 1602.76 789.881 1600.65 792.002C1599.29 793.371 1598.01 794.729 1596.54 795.993C1598.35 794.434 1594.89 797.07 1594.13 797.518C1593.28 797.995 1592.4 798.434 1591.54 798.906C1588.82 800.403 1592.84 798.477 1591.06 799.139C1589.3 799.802 1587.5 800.351 1585.66 800.784C1584.97 800.946 1584.28 801.061 1583.59 801.213C1582.24 801.433 1582.18 801.452 1583.42 801.275C1582.68 801.361 1581.95 801.423 1581.21 801.471C1579.33 801.599 1577.44 801.619 1575.56 801.533C1574.46 801.485 1573.37 801.404 1572.28 801.27C1572.81 801.337 1574.28 801.704 1572.14 801.199C1570.28 800.756 1568.43 800.369 1566.61 799.769C1565.8 799.502 1565 799.22 1564.22 798.896C1566.52 799.85 1563.33 798.362 1562.89 798.124C1561.3 797.269 1559.78 796.291 1558.34 795.201C1560.21 796.632 1556.77 793.642 1556.27 793.123C1555.77 792.603 1555.17 791.926 1554.63 791.316C1553.4 789.919 1556 793.509 1554.32 790.911C1553.22 789.228 1552.25 787.521 1551.28 785.771C1549.75 783.015 1551.84 787.788 1550.8 784.76C1550.58 784.102 1550.33 783.459 1550.13 782.796C1549.5 780.758 1549.01 778.677 1548.66 776.57C1548.75 777.094 1548.8 778.629 1548.66 776.322C1548.59 775.187 1548.5 774.057 1548.47 772.918C1548.47 771.988 1548.47 771.058 1548.47 770.129C1548.47 769.652 1548.88 765.914 1548.52 768.36C1548.83 766.272 1549.31 764.212 1549.95 762.2C1550.26 761.209 1550.6 760.217 1551 759.254C1550.24 761.104 1551.31 758.777 1551.59 758.229C1552.54 756.394 1553.64 754.64 1554.88 752.984C1553.41 754.92 1555.55 752.312 1555.72 752.131C1556.41 751.375 1557.14 750.645 1557.9 749.943C1558.07 749.785 1560.67 747.607 1558.77 749.075C1559.6 748.442 1560.46 747.852 1561.35 747.306C1562.25 746.744 1563.16 746.218 1564.1 745.728C1564.54 745.499 1567.08 744.393 1565.26 745.113C1567.31 744.302 1569.42 743.664 1571.58 743.206C1571.72 743.173 1575.34 742.648 1573.04 742.901C1574.61 742.729 1576.18 742.677 1577.75 742.653C1580.79 742.653 1583.7 741.448 1585.85 739.302C1587.99 737.156 1589.2 734.246 1589.2 731.211C1589.2 728.176 1587.99 725.266 1585.85 723.12C1583.7 720.974 1580.79 719.769 1577.75 719.769L1577.82 719.797Z" fill="#095214"/>
<path d="M1130.74 659.321V743.092C1130.73 748.273 1128.67 753.24 1125 756.904C1121.34 760.568 1116.37 762.63 1111.19 762.639H31.028C25.8465 762.63 20.8798 760.568 17.2159 756.904C13.552 753.24 11.4898 748.273 11.481 743.092V659.321H1130.74Z" fill="#5EB66B"/>
<path d="M1130.74 31.3205V659.32H11.4419V31.3205C11.4419 26.1363 13.5013 21.1644 17.1671 17.4986C20.8329 13.8329 25.8048 11.7734 30.989 11.7734H1111.17C1113.74 11.7716 1116.29 12.2758 1118.66 13.2573C1121.03 14.2388 1123.19 15.6783 1125.01 17.4936C1126.82 19.3089 1128.26 21.4644 1129.25 23.8369C1130.23 26.2094 1130.74 28.7524 1130.74 31.3205Z" fill="white"/>
<path d="M357.907 919.511H731.581C748.858 919.511 766.293 920.203 783.547 919.511C783.79 919.511 784.024 919.511 784.286 919.511C799.008 919.511 799.032 896.627 784.286 896.627H410.622C393.349 896.627 375.909 895.931 358.656 896.627C358.412 896.627 358.179 896.627 357.921 896.627C343.194 896.627 343.171 919.511 357.921 919.511H357.907Z" fill="#095214"/>
<path d="M451.194 905.094V762.915C451.194 748.193 428.31 748.169 428.31 762.915V905.094C428.31 919.821 451.194 919.845 451.194 905.094Z" fill="#095214"/>
<path d="M691.014 762.915V905.094C691.014 919.817 713.898 919.84 713.898 905.094V762.915C713.898 748.193 691.014 748.169 691.014 762.915Z" fill="#095214"/>
<path d="M1111.17 0.326589H54.9751C47.0513 0.326589 39.0704 0.0548372 31.1372 0.326589C26.9706 0.404086 22.8602 1.30224 19.041 2.96968C15.2219 4.63711 11.7689 7.04111 8.87963 10.0442C5.99036 13.0472 3.72148 16.5905 2.20275 20.4711C0.684021 24.3518 -0.0547514 28.4939 0.0286884 32.6603C-0.0142198 37.4279 0.0286884 42.1955 0.0286884 46.9631V695.74C0.0286884 710.811 -0.0380577 725.881 0.0286884 740.951C-0.141435 745.171 0.529158 749.382 2.00146 753.34C3.47376 757.298 5.71837 760.923 8.60473 764.006C11.4911 767.088 14.9616 769.566 18.8143 771.295C22.667 773.024 26.8251 773.969 31.0466 774.076C32.9822 774.143 34.9274 774.076 36.863 774.076H1104.65C1106.8 774.076 1108.97 774.148 1111.12 774.076C1115.3 773.989 1119.43 773.076 1123.25 771.389C1127.08 769.703 1130.54 767.276 1133.43 764.249C1136.31 761.221 1138.58 757.653 1140.08 753.749C1141.58 749.844 1142.3 745.682 1142.19 741.499C1142.31 727.082 1142.19 712.656 1142.19 698.238V48.3314C1142.19 43.3683 1142.19 38.41 1142.19 33.4517C1142.36 29.2353 1141.68 25.0275 1140.21 21.0726C1138.74 17.1177 1136.5 13.4943 1133.62 10.4128C1130.73 7.33126 1127.27 4.85288 1123.42 3.12146C1119.57 1.39004 1115.42 0.44004 1111.2 0.326589C1096.47 -0.264591 1096.5 22.6198 1111.2 23.211C1118.93 23.5256 1119.3 30.0525 1119.3 35.8832V702.763C1119.3 715.912 1119.48 729.07 1119.3 742.219C1119.17 753.004 1108.08 751.192 1100.54 751.192H36.0144C33.8024 751.358 31.5795 751.305 29.3779 751.035C22.5746 749.561 22.9131 743.406 22.9131 738.086V44.2122C22.9131 36.0691 20.6151 23.3349 32.2099 23.2348C42.1121 23.1299 52.0239 23.2348 61.931 23.2348H1111.17C1125.89 23.211 1125.92 0.326589 1111.17 0.326589Z" fill="#095214"/>
<path d="M11.4424 670.758H1130.73C1145.45 670.758 1145.48 647.874 1130.73 647.874H11.4424C-3.28464 647.874 -3.30848 670.758 11.4424 670.758Z" fill="#095214"/>
</svg>
