<svg width="420" height="620" viewBox="0 0 420 620" fill="none" xmlns="http://www.w3.org/2000/svg">
<path opacity="0.15" d="M20 76.6667C20 45.3705 45.3705 20 76.6667 20H343.333C374.63 20 400 45.3704 400 76.6667V543.333C400 574.63 374.63 600 343.333 600H76.6667C45.3704 600 20 574.63 20 543.333V76.6667Z" stroke="#C94208" stroke-width="20"/>
<path d="M210 510.333V510M76.6667 10H343.333C380.153 10 410 39.8477 410 76.6667V543.333C410 580.153 380.153 610 343.333 610H76.6667C39.8477 610 10 580.153 10 543.333V76.6667C10 39.8477 39.8477 10 76.6667 10Z" stroke="#C94208" stroke-width="20" stroke-linecap="round" stroke-linejoin="round"/>
<line x1="18" y1="446" x2="410" y2="446" stroke="#C94208" stroke-width="20"/>
</svg>
