<svg width="883" height="656" viewBox="0 0 883 656" fill="none" xmlns="http://www.w3.org/2000/svg">
<path d="M113.202 160.444L113.161 45.0551C113.161 38.199 113.087 31.9895 117.092 26.095C118.792 23.6276 120.969 21.5258 123.494 19.9139C126.02 18.3019 128.843 17.2124 131.796 16.7097C136.183 16.2564 140.599 16.1647 145.001 16.4355H157.366C202.353 16.4355 247.339 16.4219 292.324 16.3948L459.099 16.3441L620.839 16.2933L739.005 16.2493C742.964 16.0153 746.935 16.0798 750.885 16.4422C756.721 17.4158 761.945 20.6305 765.444 25.4009C768.736 30.4661 770.235 36.4882 769.703 42.5056C769.703 49.0311 769.703 55.5543 769.703 62.0752C769.703 91.7681 769.714 121.462 769.737 151.157C769.764 218.583 769.79 286.011 769.815 353.441L769.845 445.195C769.483 448.852 769.582 452.539 770.14 456.171C771.158 458.692 772.541 461.05 774.243 463.17L779.407 471.116C785.049 479.786 790.682 488.456 796.305 497.125L831.516 551.297L848.872 578.044C851.689 582.378 854.503 586.714 857.316 591.052C860.455 595.188 863.146 599.647 865.343 604.352C866.606 608.545 867.084 612.935 866.752 617.302C867.164 621.345 866.82 625.429 865.736 629.345C864.71 631.899 862.996 634.119 860.785 635.759C858.573 637.398 855.951 638.393 853.209 638.632C850.71 638.839 848.13 638.666 845.635 638.666H58.2346C49.1981 638.666 40.1378 638.866 31.1047 638.666C27.1947 638.659 23.4445 637.114 20.6631 634.366C15.4456 629.189 16.3022 622.282 16.2616 615.511C15.9519 611.248 16.2805 606.963 17.2367 602.798C19.1514 598.004 21.7541 593.515 24.9629 589.471C30.8135 580.653 36.6674 571.835 42.5248 563.019C54.3884 545.151 66.2497 527.282 78.1088 509.412C83.8014 500.835 89.4872 492.251 95.1662 483.66C98.0057 479.372 100.844 475.075 103.681 470.771C105.261 468.385 106.841 465.998 108.421 463.61C110.33 461.296 111.881 458.709 113.023 455.935C113.49 453.035 113.586 450.089 113.31 447.165V438.644C113.31 432.466 113.31 426.286 113.31 420.103C113.31 405.319 113.305 390.534 113.293 375.75L113.253 269.689C113.239 233.274 113.227 196.858 113.216 160.441C113.216 149.986 96.964 149.969 96.964 160.441C96.9911 242.376 97.0204 324.311 97.052 406.245L97.0724 453.774L98.1863 449.674C71.4141 490.269 44.5472 530.799 17.5854 571.263C11.3828 580.604 3.14188 590.138 0.859896 601.396C0.0494595 606.539 -0.22964 611.753 0.0270051 616.953C-0.260472 622.012 0.109402 627.087 1.12737 632.05C2.99288 638.609 6.93603 644.386 12.3646 648.513C17.7932 652.64 24.4142 654.895 31.2333 654.938C43.3509 655.178 55.5023 654.938 67.6232 654.938H848.465C849.583 654.938 850.703 654.958 851.821 654.938C858.446 654.891 864.889 652.761 870.237 648.849C875.584 644.937 879.565 639.441 881.615 633.141C882.812 628.53 883.281 623.761 883.007 619.005C883.351 613.106 882.833 607.189 881.469 601.44C879.626 596.101 877.009 591.061 873.703 586.482L863.383 570.569C850.091 550.096 836.797 529.624 823.502 509.152C810.673 489.401 797.843 469.651 785.013 449.901L786.124 454.001C786.11 407.039 786.093 360.075 786.073 313.111C786.057 262.169 786.038 211.227 786.015 160.285C786.015 137.052 786.006 113.819 785.988 90.5865V58.8791C785.988 48.969 787.251 37.9484 784.6 28.3126C782.999 22.6289 780.124 17.3846 776.193 12.9778C772.263 8.57093 767.38 5.1173 761.916 2.87898C754.43 -0.198654 746.68 -0.00905295 738.754 -0.00566722H701.656L600.867 0.0451188L479.027 0.0823619L351.047 0.122991L233.954 0.160234L142.702 0.18732C133.134 0.18732 123.975 0.590223 115.531 5.75347C110.542 8.81476 106.307 12.9616 103.142 17.8855C99.9765 22.8095 97.962 28.3837 97.2484 34.1937C96.7664 40.1805 96.6533 46.1914 96.9098 52.1922V71.4909C96.9098 85.7652 96.9098 100.038 96.9098 114.31C96.9098 129.697 96.9155 145.084 96.9268 160.471C96.9539 170.903 113.205 170.92 113.202 160.444Z" fill="black"/>
<path d="M821.718 604.548H92.1362C82.2837 604.548 72.4041 604.335 62.555 604.548C62.1318 604.548 61.7086 604.548 61.2887 604.548C50.8302 604.548 50.8133 620.8 61.2887 620.8H790.881C800.734 620.8 810.613 621.016 820.462 620.8C820.885 620.8 821.305 620.8 821.729 620.8C832.184 620.8 832.201 604.548 821.729 604.548H821.718Z" fill="black"/>
<path d="M756.82 492.494C749.065 478.298 741.311 464.1 733.56 449.898C732.844 448.673 731.819 447.658 730.588 446.952C729.358 446.246 727.964 445.875 726.545 445.875H239.856C217.374 445.875 194.795 445.266 172.317 445.875C171.978 445.875 171.667 445.875 171.342 445.875C169.922 445.872 168.527 446.241 167.296 446.947C166.064 447.653 165.04 448.671 164.327 449.898C148.536 479.767 132.839 509.683 116.892 539.471C116.198 540.71 115.836 542.107 115.843 543.527C115.85 544.948 116.225 546.342 116.932 547.574C117.639 548.806 118.653 549.833 119.876 550.556C121.098 551.278 122.488 551.672 123.908 551.697H748.887C757.375 551.697 765.891 551.907 774.375 551.697C774.737 551.697 775.103 551.697 775.465 551.697C776.886 551.672 778.275 551.279 779.499 550.557C780.722 549.835 781.737 548.807 782.444 547.575C783.151 546.343 783.526 544.949 783.534 543.528C783.541 542.108 783.179 540.71 782.484 539.471C773.936 523.808 765.382 508.149 756.82 492.494C751.802 483.312 737.765 491.505 742.786 500.694C751.341 516.354 759.896 532.014 768.45 547.674L775.465 535.445H150.486C142.045 535.445 133.432 534.951 124.998 535.445C124.636 535.465 124.27 535.445 123.908 535.445L130.923 547.674C146.87 517.88 162.569 487.97 178.36 458.101L171.342 462.127H703.786C710.998 462.127 718.368 462.571 725.57 462.127C725.891 462.107 726.22 462.127 726.545 462.127L719.526 458.101C727.273 472.303 735.026 486.501 742.786 500.694C747.804 509.89 761.841 501.683 756.82 492.494Z" fill="black"/>
<path d="M322.745 614.827C327.262 592.522 332.225 570.301 337.199 548.094C337.723 546.018 337.425 543.819 336.368 541.957C335.31 540.094 333.573 538.713 331.521 538.1C329.444 537.55 327.235 537.837 325.366 538.898C323.498 539.958 322.119 541.709 321.527 543.774C316.556 565.981 311.593 588.202 307.073 610.507C306.554 612.583 306.854 614.78 307.911 616.641C308.968 618.502 310.701 619.884 312.751 620.502C314.828 621.054 317.039 620.768 318.908 619.707C320.777 618.646 322.155 616.894 322.745 614.827Z" fill="black"/>
<path d="M547.23 548.094C552.2 570.305 557.12 592.532 561.68 614.827C562.253 616.905 563.628 618.671 565.503 619.736C567.377 620.8 569.598 621.076 571.677 620.503C573.755 619.93 575.52 618.555 576.585 616.681C577.649 614.806 577.926 612.585 577.353 610.507C572.792 588.212 567.873 565.985 562.899 543.774C562.326 541.696 560.951 539.931 559.077 538.867C557.203 537.803 554.982 537.527 552.904 538.1C550.826 538.673 549.061 540.047 547.997 541.922C546.933 543.796 546.657 546.016 547.23 548.094Z" fill="black"/>
<path d="M681.21 42.3194L582.16 42.3533L464.377 42.3939L343.845 42.4379L236.541 42.4718L158.74 42.4955H151.705C149.559 42.5253 147.509 43.3909 145.992 44.9084C144.474 46.4259 143.609 48.4754 143.579 50.6213C143.599 103.017 143.623 155.41 143.65 207.801C143.682 262.51 143.709 317.221 143.731 371.934C143.731 385.513 143.731 399.095 143.731 412.678C143.763 414.824 144.629 416.872 146.146 418.389C147.663 419.906 149.712 420.773 151.857 420.804L239.612 420.77L364.583 420.723L503.991 420.672L631.271 420.625L723.701 420.594H731.319C733.464 420.563 735.513 419.696 737.03 418.179C738.547 416.662 739.413 414.614 739.445 412.468L739.384 268.006C739.361 218.777 739.34 169.549 739.32 120.32L739.289 50.4249C739.258 48.2793 738.392 46.2303 736.875 44.713C735.358 43.1957 733.309 42.3298 731.163 42.2991L681.21 42.3194C670.755 42.3194 670.738 58.571 681.21 58.571H731.153L723.027 50.4452C723.045 94.3763 723.065 138.307 723.085 182.238C723.105 232.638 723.127 283.037 723.149 333.435C723.149 359.788 723.161 386.139 723.183 412.489L731.309 404.363L644.973 404.39L520.736 404.434L381.369 404.485L253.443 404.532L159.681 404.569H151.86L159.986 412.695C159.948 375.628 159.935 338.561 159.949 301.494L159.868 137.516C159.854 108.557 159.842 79.5975 159.83 50.6382L151.705 58.764L225.151 58.7166L329.747 58.6793L449.524 58.6387L568.499 58.5947L670.257 58.5608H681.227C691.669 58.571 691.686 42.3194 681.21 42.3194Z" fill="black"/>
</svg>
